<?xml version="1.0" encoding="UTF-8" standalone="no"?>
<!DOCTYPE svg PUBLIC "-//W3C//DTD SVG 1.1//EN"
 "http://www.w3.org/Graphics/SVG/1.1/DTD/svg11.dtd">
<!-- Generated by graphviz version 2.43.0 (0)
 -->
<!-- Title: G Pages: 1 -->
<svg width="1476pt" height="218pt"
 viewBox="0.00 0.00 1476.14 218.00" xmlns="http://www.w3.org/2000/svg" xmlns:xlink="http://www.w3.org/1999/xlink">
<g id="graph0" class="graph" transform="scale(1 1) rotate(0) translate(4 214)">
<title>G</title>
<polygon fill="white" stroke="transparent" points="-4,4 -4,-214 1472.14,-214 1472.14,4 -4,4"/>
<!-- 20;30 -->
<g id="node1" class="node">
<title>20;30</title>
<ellipse fill="none" stroke="black" cx="81.89" cy="-18" rx="81.79" ry="18"/>
<text text-anchor="middle" x="81.89" y="-14.3" font-family="Times,serif" font-size="14.00">AbCD.B.AC.AbCD</text>
</g>
<!-- 20;31 -->
<g id="node2" class="node">
<title>20;31</title>
<ellipse fill="none" stroke="black" cx="273.89" cy="-18" rx="74.99" ry="18"/>
<text text-anchor="middle" x="273.89" y="-14.3" font-family="Times,serif" font-size="14.00">AC.aBD.AC.aBD</text>
</g>
<!-- 20;30&#45;&gt;20;31 -->
<g id="edge1" class="edge">
<title>20;30&#45;&gt;20;31</title>
<path fill="none" stroke="black" stroke-dasharray="5,2" d="M163.87,-18C175.49,-18 187.39,-18 198.87,-18"/>
<text text-anchor="middle" x="181.47" y="-24.8" font-family="Times,serif" font-size="14.00">c</text>
</g>
<!-- 20 -->
<g id="node3" class="node">
<title>20</title>
<ellipse fill="none" stroke="black" cx="273.89" cy="-105" rx="63.09" ry="18"/>
<text text-anchor="middle" x="273.89" y="-101.3" font-family="Times,serif" font-size="14.00">AC.B.AC.abD</text>
</g>
<!-- 20&#45;&gt;20;30 -->
<g id="edge2" class="edge">
<title>20&#45;&gt;20;30</title>
<path fill="none" stroke="black" d="M241.32,-89.58C209.64,-75.55 161.26,-54.14 126.11,-38.58"/>
<polygon fill="black" stroke="black" points="127.13,-35.2 116.57,-34.35 124.3,-41.6 127.13,-35.2"/>
<text text-anchor="middle" x="196.39" y="-57.8" font-family="Times,serif" font-size="14.00">da</text>
</g>
<!-- 20&#45;&gt;20;31 -->
<g id="edge3" class="edge">
<title>20&#45;&gt;20;31</title>
<path fill="none" stroke="black" d="M273.89,-86.8C273.89,-75.16 273.89,-59.55 273.89,-46.24"/>
<polygon fill="black" stroke="black" points="277.39,-46.18 273.89,-36.18 270.39,-46.18 277.39,-46.18"/>
<text text-anchor="middle" x="280.89" y="-57.8" font-family="Times,serif" font-size="14.00">db</text>
</g>
<!-- 30;01 -->
<g id="node4" class="node">
<title>30;01</title>
<ellipse fill="none" stroke="black" cx="640.89" cy="-18" rx="81.79" ry="18"/>
<text text-anchor="middle" x="640.89" y="-14.3" font-family="Times,serif" font-size="14.00">ABD.ABD.aC.AbD</text>
</g>
<!-- 30;31 -->
<g id="node5" class="node">
<title>30;31</title>
<ellipse fill="none" stroke="black" cx="839.89" cy="-18" rx="81.79" ry="18"/>
<text text-anchor="middle" x="839.89" y="-14.3" font-family="Times,serif" font-size="14.00">AbD.ABD.aC.ABD</text>
</g>
<!-- 30;01&#45;&gt;30;31 -->
<g id="edge4" class="edge">
<title>30;01&#45;&gt;30;31</title>
<path fill="none" stroke="black" stroke-dasharray="5,2" d="M722.98,-18C734.55,-18 746.43,-18 757.99,-18"/>
<text text-anchor="middle" x="740.39" y="-24.8" font-family="Times,serif" font-size="14.00">c</text>
</g>
<!-- 31;10 -->
<g id="node6" class="node">
<title>31;10</title>
<ellipse fill="none" stroke="black" cx="1188.89" cy="-18" rx="81.49" ry="18"/>
<text text-anchor="middle" x="1188.89" y="-14.3" font-family="Times,serif" font-size="14.00">ABD.ABD.aC.aBD</text>
</g>
<!-- 30;01&#45;&gt;31;10 -->
<g id="edge5" class="edge">
<title>30;01&#45;&gt;31;10</title>
<path fill="none" stroke="black" stroke-dasharray="5,2" d="M694.9,-31.64C740.1,-42.31 806.49,-56.28 865.39,-62 969.32,-72.09 995.74,-52.21 1098.89,-36 1108.97,-34.42 1119.63,-32.5 1129.96,-30.52"/>
<text text-anchor="middle" x="868.89" y="-57.8" font-family="Times,serif" font-size="14.00">c</text>
</g>
<!-- 31;30 -->
<g id="node7" class="node">
<title>31;30</title>
<ellipse fill="none" stroke="black" cx="1386.89" cy="-18" rx="81.49" ry="18"/>
<text text-anchor="middle" x="1386.89" y="-14.3" font-family="Times,serif" font-size="14.00">ABD.aBD.aC.ABD</text>
</g>
<!-- 30;01&#45;&gt;31;30 -->
<g id="edge6" class="edge">
<title>30;01&#45;&gt;31;30</title>
<path fill="none" stroke="black" stroke-dasharray="5,2" d="M705.05,-29.28C719.45,-31.65 734.68,-34.02 748.89,-36 748.89,-36 1278.89,-36 1278.89,-36 1293.41,-34.14 1308.97,-31.77 1323.62,-29.37"/>
<text text-anchor="middle" x="984.89" y="-57.8" font-family="Times,serif" font-size="14.00">c</text>
</g>
<!-- 30;31&#45;&gt;31;10 -->
<g id="edge7" class="edge">
<title>30;31&#45;&gt;31;10</title>
<path fill="none" stroke="black" stroke-dasharray="5,2" d="M870.22,-34.89C890.08,-44.96 916.97,-56.77 942.39,-62 1015.63,-77.06 1101.73,-52.02 1150.35,-33.97"/>
<text text-anchor="middle" x="945.89" y="-57.8" font-family="Times,serif" font-size="14.00">c</text>
</g>
<!-- 30;31&#45;&gt;31;30 -->
<g id="edge8" class="edge">
<title>30;31&#45;&gt;31;30</title>
<path fill="none" stroke="black" stroke-dasharray="5,2" d="M875.52,-34.24C899.96,-44.46 933.44,-56.69 964.39,-62 1033.51,-73.85 1209.31,-44.73 1278.89,-36 1293.51,-34.17 1309.17,-31.79 1323.91,-29.38"/>
<text text-anchor="middle" x="967.89" y="-57.8" font-family="Times,serif" font-size="14.00">c</text>
</g>
<!-- 31;10&#45;&gt;31;30 -->
<g id="edge13" class="edge">
<title>31;10&#45;&gt;31;30</title>
<path fill="none" stroke="black" stroke-dasharray="5,2" d="M1270.28,-18C1281.91,-18 1293.87,-18 1305.5,-18"/>
<text text-anchor="middle" x="1287.89" y="-24.8" font-family="Times,serif" font-size="14.00">c</text>
</g>
<!-- 30;20 -->
<g id="node8" class="node">
<title>30;20</title>
<ellipse fill="none" stroke="black" cx="453.89" cy="-18" rx="87.18" ry="18"/>
<text text-anchor="middle" x="453.89" y="-14.3" font-family="Times,serif" font-size="14.00">AbCD.B.AbCD.AbD</text>
</g>
<!-- 30 -->
<g id="node9" class="node">
<title>30</title>
<ellipse fill="none" stroke="black" cx="710.89" cy="-105" rx="67.69" ry="18"/>
<text text-anchor="middle" x="710.89" y="-101.3" font-family="Times,serif" font-size="14.00">AbD.B.aC.AbD</text>
</g>
<!-- 30&#45;&gt;30;01 -->
<g id="edge9" class="edge">
<title>30&#45;&gt;30;01</title>
<path fill="none" stroke="black" d="M697.06,-87.21C686.8,-74.75 672.66,-57.57 661.13,-43.57"/>
<polygon fill="black" stroke="black" points="663.75,-41.25 654.69,-35.76 658.35,-45.7 663.75,-41.25"/>
<text text-anchor="middle" x="686.39" y="-57.8" font-family="Times,serif" font-size="14.00">ab</text>
</g>
<!-- 30&#45;&gt;30;31 -->
<g id="edge11" class="edge">
<title>30&#45;&gt;30;31</title>
<path fill="none" stroke="black" d="M735.16,-88.01C755.39,-74.68 784.41,-55.56 806.78,-40.82"/>
<polygon fill="black" stroke="black" points="808.87,-43.63 815.3,-35.21 805.02,-37.78 808.87,-43.63"/>
<text text-anchor="middle" x="789.89" y="-57.8" font-family="Times,serif" font-size="14.00">db</text>
</g>
<!-- 30&#45;&gt;30;20 -->
<g id="edge10" class="edge">
<title>30&#45;&gt;30;20</title>
<path fill="none" stroke="black" d="M670.17,-90.53C626.21,-75.99 555.99,-52.77 507.55,-36.75"/>
<polygon fill="black" stroke="black" points="508.46,-33.36 497.87,-33.54 506.26,-40.01 508.46,-33.36"/>
<text text-anchor="middle" x="603.39" y="-57.8" font-family="Times,serif" font-size="14.00">ca</text>
</g>
<!-- 31 -->
<g id="node10" class="node">
<title>31</title>
<ellipse fill="none" stroke="black" cx="1014.89" cy="-105" rx="66.09" ry="18"/>
<text text-anchor="middle" x="1014.89" y="-101.3" font-family="Times,serif" font-size="14.00">A.aBD.aC.aBD</text>
</g>
<!-- 30&#45;&gt;31 -->
<g id="edge12" class="edge">
<title>30&#45;&gt;31</title>
<path fill="none" stroke="black" stroke-dasharray="5,2" d="M778.74,-105C829.4,-105 898.27,-105 948.56,-105"/>
<text text-anchor="middle" x="863.54" y="-111.8" font-family="Times,serif" font-size="14.00">c</text>
</g>
<!-- 31&#45;&gt;31;10 -->
<g id="edge14" class="edge">
<title>31&#45;&gt;31;10</title>
<path fill="none" stroke="black" d="M1045.6,-89C1073.98,-75.13 1116.37,-54.43 1147.69,-39.13"/>
<polygon fill="black" stroke="black" points="1149.57,-42.1 1157.02,-34.57 1146.5,-35.81 1149.57,-42.1"/>
<text text-anchor="middle" x="1118.39" y="-57.8" font-family="Times,serif" font-size="14.00">ba</text>
</g>
<!-- 31&#45;&gt;31;30 -->
<g id="edge16" class="edge">
<title>31&#45;&gt;31;30</title>
<path fill="none" stroke="black" d="M1063.91,-92.8C1130.24,-77.64 1248.71,-50.57 1322.26,-33.77"/>
<polygon fill="black" stroke="black" points="1323.36,-37.11 1332.33,-31.47 1321.8,-30.28 1323.36,-37.11"/>
<text text-anchor="middle" x="1229.39" y="-57.8" font-family="Times,serif" font-size="14.00">da</text>
</g>
<!-- 31;20 -->
<g id="node11" class="node">
<title>31;20</title>
<ellipse fill="none" stroke="black" cx="1014.89" cy="-18" rx="74.99" ry="18"/>
<text text-anchor="middle" x="1014.89" y="-14.3" font-family="Times,serif" font-size="14.00">AC.aBD.AC.aBD</text>
</g>
<!-- 31&#45;&gt;31;20 -->
<g id="edge15" class="edge">
<title>31&#45;&gt;31;20</title>
<path fill="none" stroke="black" d="M1014.89,-86.8C1014.89,-75.16 1014.89,-59.55 1014.89,-46.24"/>
<polygon fill="black" stroke="black" points="1018.39,-46.18 1014.89,-36.18 1011.39,-46.18 1018.39,-46.18"/>
<text text-anchor="middle" x="1021.39" y="-57.8" font-family="Times,serif" font-size="14.00">ca</text>
</g>
<g id="node12" class="node">
<title></title>
<ellipse fill="none" stroke="black" cx="710.89" cy="-192" rx="54.69" ry="18"/>
<text text-anchor="middle" x="710.89" y="-188.3" font-family="Times,serif" font-size="14.00">A.B.aC.abD</text>
</g>
<!-- &#45;&gt;20 -->
<g id="edge17" class="edge">
<title>&#45;&gt;20</title>
<path fill="none" stroke="black" d="M664.95,-182.06C585.61,-166.63 422.94,-134.99 334.46,-117.78"/>
<polygon fill="black" stroke="black" points="335.05,-114.33 324.57,-115.86 333.72,-121.2 335.05,-114.33"/>
<text text-anchor="middle" x="524.39" y="-144.8" font-family="Times,serif" font-size="14.00">ca</text>
</g>
<!-- &#45;&gt;30 -->
<g id="edge18" class="edge">
<title>&#45;&gt;30</title>
<path fill="none" stroke="black" d="M710.89,-173.8C710.89,-162.16 710.89,-146.55 710.89,-133.24"/>
<polygon fill="black" stroke="black" points="714.39,-133.18 710.89,-123.18 707.39,-133.18 714.39,-133.18"/>
<text text-anchor="middle" x="717.39" y="-144.8" font-family="Times,serif" font-size="14.00">da</text>
</g>
<!-- &#45;&gt;31 -->
<g id="edge19" class="edge">
<title>&#45;&gt;31</title>
<path fill="none" stroke="black" d="M751.26,-179.71C805.12,-164.65 900.64,-137.95 960.71,-121.15"/>
<polygon fill="black" stroke="black" points="961.72,-124.5 970.4,-118.44 959.83,-117.76 961.72,-124.5"/>
<text text-anchor="middle" x="887.89" y="-144.8" font-family="Times,serif" font-size="14.00">db</text>
</g>
</g>
</svg>
